<svg xmlns="http://www.w3.org/2000/svg" width="20.382" height="22.227" viewBox="0 0 20.382 22.227">
  <g id="Iconly_Curved_Setting" data-name="Iconly/Curved/Setting" transform="translate(0.918 0.75)">
    <g id="Setting" transform="translate(0)">
      <path id="Stroke_1" data-name="Stroke 1" d="M2.727,0A2.727,2.727,0,1,1,0,2.727,2.727,2.727,0,0,1,2.727,0Z" transform="translate(6.545 7.636)" fill="none" stroke="#027AFE" stroke-linecap="round" stroke-linejoin="round" stroke-width="1.5"/>
      <path id="Stroke_3" data-name="Stroke 3" d="M18.183,5.182h0A2.688,2.688,0,0,0,14.5,4.187a1.684,1.684,0,0,1-2.525-1.469A2.71,2.71,0,0,0,9.272,0h0a2.71,2.71,0,0,0-2.7,2.719A1.683,1.683,0,0,1,4.049,4.187a2.689,2.689,0,0,0-3.688.995A2.729,2.729,0,0,0,1.35,8.9a1.7,1.7,0,0,1,0,2.936,2.73,2.73,0,0,0-.989,3.713,2.689,2.689,0,0,0,3.687,1h0a1.682,1.682,0,0,1,2.524,1.468h0a2.71,2.71,0,0,0,2.7,2.719h0a2.71,2.71,0,0,0,2.7-2.719h0A1.683,1.683,0,0,1,14.5,16.541a2.689,2.689,0,0,0,3.687-1,2.729,2.729,0,0,0-.987-3.713h0a1.7,1.7,0,0,1,0-2.936A2.729,2.729,0,0,0,18.183,5.182Z" transform="translate(0)" fill="none" stroke="#027AFE" stroke-linecap="round" stroke-linejoin="round" stroke-width="1.5"/>
    </g>
  </g>
</svg>
