<svg xmlns="http://www.w3.org/2000/svg" width="21.246" height="21.246" viewBox="0 0 21.246 21.246">
  <g id="Group_28" data-name="Group 28" transform="translate(-1300 -113.5)">
    <g id="Menu_ICon" data-name="Menu ICon" transform="translate(1300 113.5)">
      <g id="Rectangle_241_Stroke_" data-name="Rectangle 241 (Stroke)" fill="none">
        <path d="M5.9,1.77H3.541a1.77,1.77,0,0,0-1.77,1.77V5.9a1.77,1.77,0,0,0,1.77,1.77H5.9A1.77,1.77,0,0,0,7.672,5.9V3.541A1.77,1.77,0,0,0,5.9,1.77ZM3.541,0A3.541,3.541,0,0,0,0,3.541V5.9A3.541,3.541,0,0,0,3.541,9.443H5.9A3.541,3.541,0,0,0,9.443,5.9V3.541A3.541,3.541,0,0,0,5.9,0Z" stroke="none"/>
        <path d="M 3.54099702835083 -2.86102294921875e-06 L 5.901657104492188 -2.86102294921875e-06 C 7.857296943664551 -2.86102294921875e-06 9.442656517028809 1.585356712341309 9.442656517028809 3.54099702835083 L 9.442656517028809 5.901657104492188 C 9.442656517028809 7.857296943664551 7.857296943664551 9.442656517028809 5.901657104492188 9.442656517028809 L 3.54099702835083 9.442656517028809 C 1.585356712341309 9.442656517028809 -2.86102294921875e-06 7.857296943664551 -2.86102294921875e-06 5.901657104492188 L -2.86102294921875e-06 3.54099702835083 C -2.86102294921875e-06 1.585356712341309 1.585356712341309 -2.86102294921875e-06 3.54099702835083 -2.86102294921875e-06 Z M 5.901657104492188 7.672156810760498 C 6.879476547241211 7.672156810760498 7.672156810760498 6.879476547241211 7.672156810760498 5.901657104492188 L 7.672156810760498 3.54099702835083 C 7.672156810760498 2.56317663192749 6.879476547241211 1.770496845245361 5.901657104492188 1.770496845245361 L 3.54099702835083 1.770496845245361 C 2.56317663192749 1.770496845245361 1.770496845245361 2.56317663192749 1.770496845245361 3.54099702835083 L 1.770496845245361 5.901657104492188 C 1.770496845245361 6.879476547241211 2.56317663192749 7.672156810760498 3.54099702835083 7.672156810760498 L 5.901657104492188 7.672156810760498 Z" stroke="none" fill="#000"/>
      </g>
      <g id="Rectangle_243_Stroke_" data-name="Rectangle 243 (Stroke)" transform="translate(0 11.803)" fill="none">
        <path d="M5.9,1.77H3.541a1.77,1.77,0,0,0-1.77,1.77V5.9a1.77,1.77,0,0,0,1.77,1.77H5.9A1.77,1.77,0,0,0,7.672,5.9V3.541A1.77,1.77,0,0,0,5.9,1.77ZM3.541,0A3.541,3.541,0,0,0,0,3.541V5.9A3.541,3.541,0,0,0,3.541,9.443H5.9A3.541,3.541,0,0,0,9.443,5.9V3.541A3.541,3.541,0,0,0,5.9,0Z" stroke="none"/>
        <path d="M 3.54099702835083 -2.86102294921875e-06 L 5.901657104492188 -2.86102294921875e-06 C 7.857296943664551 -2.86102294921875e-06 9.442656517028809 1.585356712341309 9.442656517028809 3.54099702835083 L 9.442656517028809 5.901657104492188 C 9.442656517028809 7.857296943664551 7.857296943664551 9.442656517028809 5.901657104492188 9.442656517028809 L 3.54099702835083 9.442656517028809 C 1.585356712341309 9.442656517028809 -2.86102294921875e-06 7.857296943664551 -2.86102294921875e-06 5.901657104492188 L -2.86102294921875e-06 3.54099702835083 C -2.86102294921875e-06 1.585356712341309 1.585356712341309 -2.86102294921875e-06 3.54099702835083 -2.86102294921875e-06 Z M 5.901657104492188 7.672156810760498 C 6.879476547241211 7.672156810760498 7.672156810760498 6.879476547241211 7.672156810760498 5.901657104492188 L 7.672156810760498 3.54099702835083 C 7.672156810760498 2.56317663192749 6.879476547241211 1.770496845245361 5.901657104492188 1.770496845245361 L 3.54099702835083 1.770496845245361 C 2.56317663192749 1.770496845245361 1.770496845245361 2.56317663192749 1.770496845245361 3.54099702835083 L 1.770496845245361 5.901657104492188 C 1.770496845245361 6.879476547241211 2.56317663192749 7.672156810760498 3.54099702835083 7.672156810760498 L 5.901657104492188 7.672156810760498 Z" stroke="none" fill="#000"/>
      </g>
      <g id="Rectangle_242_Stroke_" data-name="Rectangle 242 (Stroke)" transform="translate(11.803)" fill="none">
        <path d="M5.9,1.77H3.541a1.77,1.77,0,0,0-1.77,1.77V5.9a1.77,1.77,0,0,0,1.77,1.77H5.9A1.77,1.77,0,0,0,7.672,5.9V3.541A1.77,1.77,0,0,0,5.9,1.77ZM3.541,0A3.541,3.541,0,0,0,0,3.541V5.9A3.541,3.541,0,0,0,3.541,9.443H5.9A3.541,3.541,0,0,0,9.443,5.9V3.541A3.541,3.541,0,0,0,5.9,0Z" stroke="none"/>
        <path d="M 3.54099702835083 -2.86102294921875e-06 L 5.901657104492188 -2.86102294921875e-06 C 7.857296943664551 -2.86102294921875e-06 9.442656517028809 1.585356712341309 9.442656517028809 3.54099702835083 L 9.442656517028809 5.901657104492188 C 9.442656517028809 7.857296943664551 7.857296943664551 9.442656517028809 5.901657104492188 9.442656517028809 L 3.54099702835083 9.442656517028809 C 1.585356712341309 9.442656517028809 -2.86102294921875e-06 7.857296943664551 -2.86102294921875e-06 5.901657104492188 L -2.86102294921875e-06 3.54099702835083 C -2.86102294921875e-06 1.585356712341309 1.585356712341309 -2.86102294921875e-06 3.54099702835083 -2.86102294921875e-06 Z M 5.901657104492188 7.672156810760498 C 6.879476547241211 7.672156810760498 7.672156810760498 6.879476547241211 7.672156810760498 5.901657104492188 L 7.672156810760498 3.54099702835083 C 7.672156810760498 2.56317663192749 6.879476547241211 1.770496845245361 5.901657104492188 1.770496845245361 L 3.54099702835083 1.770496845245361 C 2.56317663192749 1.770496845245361 1.770496845245361 2.56317663192749 1.770496845245361 3.54099702835083 L 1.770496845245361 5.901657104492188 C 1.770496845245361 6.879476547241211 2.56317663192749 7.672156810760498 3.54099702835083 7.672156810760498 L 5.901657104492188 7.672156810760498 Z" stroke="none" fill="#000"/>
      </g>
      <g id="Rectangle_244_Stroke_" data-name="Rectangle 244 (Stroke)" transform="translate(11.803 11.803)" fill="none">
        <path d="M5.9,1.77H3.541a1.77,1.77,0,0,0-1.77,1.77V5.9a1.77,1.77,0,0,0,1.77,1.77H5.9A1.77,1.77,0,0,0,7.672,5.9V3.541A1.77,1.77,0,0,0,5.9,1.77ZM3.541,0A3.541,3.541,0,0,0,0,3.541V5.9A3.541,3.541,0,0,0,3.541,9.443H5.9A3.541,3.541,0,0,0,9.443,5.9V3.541A3.541,3.541,0,0,0,5.9,0Z" stroke="none"/>
        <path d="M 3.54099702835083 -2.86102294921875e-06 L 5.901657104492188 -2.86102294921875e-06 C 7.857296943664551 -2.86102294921875e-06 9.442656517028809 1.585356712341309 9.442656517028809 3.54099702835083 L 9.442656517028809 5.901657104492188 C 9.442656517028809 7.857296943664551 7.857296943664551 9.442656517028809 5.901657104492188 9.442656517028809 L 3.54099702835083 9.442656517028809 C 1.585356712341309 9.442656517028809 -2.86102294921875e-06 7.857296943664551 -2.86102294921875e-06 5.901657104492188 L -2.86102294921875e-06 3.54099702835083 C -2.86102294921875e-06 1.585356712341309 1.585356712341309 -2.86102294921875e-06 3.54099702835083 -2.86102294921875e-06 Z M 5.901657104492188 7.672156810760498 C 6.879476547241211 7.672156810760498 7.672156810760498 6.879476547241211 7.672156810760498 5.901657104492188 L 7.672156810760498 3.54099702835083 C 7.672156810760498 2.56317663192749 6.879476547241211 1.770496845245361 5.901657104492188 1.770496845245361 L 3.54099702835083 1.770496845245361 C 2.56317663192749 1.770496845245361 1.770496845245361 2.56317663192749 1.770496845245361 3.54099702835083 L 1.770496845245361 5.901657104492188 C 1.770496845245361 6.879476547241211 2.56317663192749 7.672156810760498 3.54099702835083 7.672156810760498 L 5.901657104492188 7.672156810760498 Z" stroke="none" fill="#000"/>
      </g>
      <rect id="Rectangle_9" data-name="Rectangle 9" width="17" height="16" transform="translate(2 2.5)" fill="#fff"/>
    </g>
  </g>
</svg>
